# xmcd
#
# Track frame offsets:
#	150
#	17398
#	32420
#	54257
#	71486
#	88150
#	103631
#	118507
#	133714
#	150346
#	165431
#	182322
#	194674
#	210512
#	225025
#	241334
#	259911
#	273267
#
# Disc length: 3909
#
# Revision: 1
# Processed by: cddbd v1.5.1PL0 Copyright (c) Steve Scherf et al.
# Submitted via: CDex 1.50beta9
# Normalized: r0:TDELIM( - )
#
DISCID=d80f4312
DTITLE=Various Artist - CDX Volume 183 - March 1998
DYEAR=1998
DGENRE=Country
TTITLE0=Bryan White - Bad Day To Let You Go
TTITLE1=Keith Pery - Don't Lie In My Arms Tonight
TTITLE2=Steve Wariner - Holes In The Floor of Heaven
TTITLE3=Chely Wright - I Already Do
TTITLE4=Mark Chesnutt - I Might Even Quit Lovin' You
TTITLE5=Kris Tyler - I'm In Trouble Now
TTITLE6=Lorrie Morgan - I'm Not That Easy To Forget
TTITLE7=Chris Cummings - I Waited
TTITLE8=Terri Clark - Now That I Found You
TTITLE9=Neal McCoy - Party On
TTITLE10=Sawter Brown - Small Talk
TTITLE11=Joe Diffie - Texas Size Heartache
TTITLE12=Daryle Singletary - That's Where You're Wrong
TTITLE13=Dixie Chicks - There's Your Trouble
TTITLE14=Garth Brooks - Tow Pina Coladas
TTITLE15=Mike Ireland and Holler - House of Secrets
TTITLE16=Cledus T Judd - Wives Do It All The Time
TTITLE17=Clay Walker - Then What (DM)
EXTD=YEAR: 1998
EXTT0=
EXTT1=
EXTT2=
EXTT3=
EXTT4=
EXTT5=
EXTT6=
EXTT7=
EXTT8=
EXTT9=
EXTT10=
EXTT11=
EXTT12=
EXTT13=
EXTT14=
EXTT15=
EXTT16=
EXTT17=
PLAYORDER=
